{
  "accessors": [
    {
      "bufferView": 2,
      "componentType": 5126,
      "count": 65532,
      "max": [
        4.998537540435791,
        3.446089744567871,
        4.994574546813965
      ],
      "min": [
        -4.999642848968506,
        -1.815272569656372,
        -4.993836402893066
      ],
      "type": "VEC3"
    },
    {
      "bufferView": 2,
      "byteOffset": 786384,
      "componentType": 5126,
      "count": 65532,
      "max": [
        0.9999950528144836,
        0.9999984502792358,
        0.9999464154243469
      ],
      "min": [
        -0.9999954104423523,
        -0.9999968409538269,
        -0.999964714050293
      ],
      "type": "VEC3"
    },
    {
      "bufferView": 1,
      "componentType": 5126,
      "count": 65532,
      "max": [
        1.0,
        0.9845061898231506
      ],
      "min": [
        0.0,
        -2.5749988555908203
      ],
      "type": "VEC2"
    },
    {
      "bufferView": 0,
      "componentType": 5125,
      "count": 267519,
      "type": "SCALAR"
    },
    {
      "bufferView": 2,
      "byteOffset": 1572768,
      "componentType": 5126,
      "count": 26827,
      "max": [
        3.2150633335113525,
        2.723985433578491,
        2.486255645751953
      ],
      "min": [
        -3.5735106468200684,
        -1.719085931777954,
        -3.83719539642334
      ],
      "type": "VEC3"
    },
    {
      "bufferView": 2,
      "byteOffset": 1894692,
      "componentType": 5126,
      "count": 26827,
      "max": [
        0.999893069267273,
        0.9999985098838806,
        0.9994434714317322
      ],
      "min": [
        -0.9999828338623047,
        -0.9999756217002869,
        -0.9994974732398987
      ],
      "type": "VEC3"
    },
    {
      "bufferView": 1,
      "byteOffset": 524256,
      "componentType": 5126,
      "count": 26827,
      "max": [
        1.0,
        0.9430162310600281
      ],
      "min": [
        0.0,
        -2.474998950958252
      ],
      "type": "VEC2"
    },
    {
      "bufferView": 0,
      "byteOffset": 1070076,
      "componentType": 5125,
      "count": 114078,
      "type": "SCALAR"
    },
    {
      "bufferView": 2,
      "byteOffset": 2216616,
      "componentType": 5126,
      "count": 912,
      "max": [
        0.19229772686958313,
        0.4332953691482544,
        0.4494510889053345
      ],
      "min": [
        -2.6876044273376465,
        0.02655351534485817,
        -3.0265402793884277
      ],
      "type": "VEC3"
    },
    {
      "bufferView": 2,
      "byteOffset": 2227560,
      "componentType": 5126,
      "count": 912,
      "max": [
        0.999163031578064,
        0.9644556641578674,
        0.9982373118400574
      ],
      "min": [
        -0.9963394999504089,
        -0.7096672654151917,
        -0.9967654943466187
      ],
      "type": "VEC3"
    },
    {
      "bufferView": 1,
      "byteOffset": 738872,
      "componentType": 5126,
      "count": 912,
      "max": [
        1.0,
        0.2222220003604889
      ],
      "min": [
        0.0,
        0.0
      ],
      "type": "VEC2"
    },
    {
      "bufferView": 0,
      "byteOffset": 1526388,
      "componentType": 5125,
      "count": 4392,
      "type": "SCALAR"
    },
    {
      "bufferView": 2,
      "byteOffset": 2238504,
      "componentType": 5126,
      "count": 4480,
      "max": [
        3.787142753601074,
        0.6273670792579651,
        2.2444748878479004
      ],
      "min": [
        -4.059703350067139,
        -0.06586618721485138,
        -4.8161821365356445
      ],
      "type": "VEC3"
    },
    {
      "bufferView": 2,
      "byteOffset": 2292264,
      "componentType": 5126,
      "count": 4480,
      "max": [
        0.9998234510421753,
        0.9844639301300049,
        0.9989470839500427
      ],
      "min": [
        -0.9998424053192139,
        -0.6158736348152161,
        -0.9997920393943787
      ],
      "type": "VEC3"
    },
    {
      "bufferView": 1,
      "byteOffset": 746168,
      "componentType": 5126,
      "count": 4480,
      "max": [
        1.0,
        0.2222220003604889
      ],
      "min": [
        0.0,
        0.0
      ],
      "type": "VEC2"
    },
    {
      "bufferView": 0,
      "byteOffset": 1543956,
      "componentType": 5125,
      "count": 21504,
      "type": "SCALAR"
    },
    {
      "bufferView": 2,
      "byteOffset": 2346024,
      "componentType": 5126,
      "count": 3042,
      "max": [
        -0.7876381278038025,
        0.8856836557388306,
        -2.725205898284912
      ],
      "min": [
        -3.4703993797302246,
        -0.048142410814762115,
        -3.9220893383026123
      ],
      "type": "VEC3"
    },
    {
      "bufferView": 2,
      "byteOffset": 2382528,
      "componentType": 5126,
      "count": 3042,
      "max": [
        0.9987812042236328,
        0.9916349053382874,
        0.9995170831680298
      ],
      "min": [
        -0.999896764755249,
        -0.9981114864349365,
        -0.9990801215171814
      ],
      "type": "VEC3"
    },
    {
      "bufferView": 1,
      "byteOffset": 782008,
      "componentType": 5126,
      "count": 3042,
      "max": [
        1.0,
        1.0
      ],
      "min": [
        0.0,
        0.0
      ],
      "type": "VEC2"
    },
    {
      "bufferView": 0,
      "byteOffset": 1629972,
      "componentType": 5125,
      "count": 11808,
      "type": "SCALAR"
    },
    {
      "bufferView": 2,
      "byteOffset": 2419032,
      "componentType": 5126,
      "count": 940,
      "max": [
        -2.2722647190093994,
        0.23239029943943024,
        2.5354104042053223
      ],
      "min": [
        -3.4103686809539795,
        -0.12412290275096893,
        1.1913809776306152
      ],
      "type": "VEC3"
    },
    {
      "bufferView": 2,
      "byteOffset": 2430312,
      "componentType": 5126,
      "count": 940,
      "max": [
        0.9952172636985779,
        0.9644557237625122,
        0.9944878816604614
      ],
      "min": [
        -0.9956451058387756,
        -0.7096672058105469,
        -0.9999316334724426
      ],
      "type": "VEC3"
    },
    {
      "bufferView": 1,
      "byteOffset": 806344,
      "componentType": 5126,
      "count": 940,
      "max": [
        1.0,
        0.2222220003604889
      ],
      "min": [
        0.0,
        0.0
      ],
      "type": "VEC2"
    },
    {
      "bufferView": 0,
      "byteOffset": 1677204,
      "componentType": 5125,
      "count": 4512,
      "type": "SCALAR"
    }
  ],
  "asset": {
    "extras": {
      "author": "raumal (https://sketchfab.com/raumal)",
      "license": "CC-BY-NC-SA-4.0 (http://creativecommons.org/licenses/by-nc-sa/4.0/)",
      "source": "https://sketchfab.com/3d-models/natural-connection-74d2e1ba1c4546dd8e5d2e9cdc45050e",
      "title": "Natural Connection"
    },
    "generator": "Sketchfab-12.13.0",
    "version": "2.0"
  },
  "bufferViews": [
    {
      "buffer": 0,
      "byteLength": 1695252,
      "name": "floatBufferViews",
      "target": 34963
    },
    {
      "buffer": 0,
      "byteLength": 813864,
      "byteOffset": 1695252,
      "byteStride": 8,
      "name": "floatBufferViews",
      "target": 34962
    },
    {
      "buffer": 0,
      "byteLength": 2441592,
      "byteOffset": 2509116,
      "byteStride": 12,
      "name": "floatBufferViews",
      "target": 34962
    }
  ],
  "buffers": [
    {
      "byteLength": 4950708,
      "uri": "scene.bin"
    }
  ],
  "images": [
    {
      "uri": "textures/default_material_emissive.png"
    }
  ],
  "materials": [
    {
      "doubleSided": true,
      "emissiveFactor": [
        1.0,
        1.0,
        1.0
      ],
      "emissiveTexture": {
        "index": 0
      },
      "name": "default_material",
      "pbrMetallicRoughness": {
        "baseColorFactor": [
          0.756863,
          0.756863,
          0.756863,
          1.0
        ],
        "metallicFactor": 0.0,
        "roughnessFactor": 0.6
      }
    },
    {
      "doubleSided": true,
      "name": "mataiStandardSurface2SG",
      "pbrMetallicRoughness": {
        "baseColorFactor": [
          0.756863,
          0.756863,
          0.756863,
          1.0
        ],
        "metallicFactor": 0.0,
        "roughnessFactor": 0.6
      }
    },
    {
      "doubleSided": true,
      "name": "mataiStandardSurface1SG",
      "pbrMetallicRoughness": {
        "baseColorFactor": [
          0.756863,
          0.756863,
          0.756863,
          1.0
        ],
        "metallicFactor": 0.0,
        "roughnessFactor": 0.6
      }
    },
    {
      "doubleSided": true,
      "emissiveFactor": [
        1.0,
        1.0,
        1.0
      ],
      "emissiveTexture": {
        "index": 0
      },
      "name": "mataiStandardSurface4SG",
      "pbrMetallicRoughness": {
        "baseColorFactor": [
          0.756863,
          0.756863,
          0.756863,
          1.0
        ],
        "metallicFactor": 0.0,
        "roughnessFactor": 0.48815655060866603
      }
    },
    {
      "doubleSided": true,
      "name": "mataiStandardSurface3SG",
      "pbrMetallicRoughness": {
        "baseColorFactor": [
          0.756863,
          0.756863,
          0.756863,
          1.0
        ],
        "metallicFactor": 0.0,
        "roughnessFactor": 0.6
      }
    }
  ],
  "meshes": [
    {
      "name": "OUT_scene_default_material_0",
      "primitives": [
        {
          "attributes": {
            "NORMAL": 1,
            "POSITION": 0,
            "TEXCOORD_0": 2
          },
          "indices": 3,
          "material": 0,
          "mode": 4
        }
      ]
    },
    {
      "name": "OUT_scene_default_material_0",
      "primitives": [
        {
          "attributes": {
            "NORMAL": 5,
            "POSITION": 4,
            "TEXCOORD_0": 6
          },
          "indices": 7,
          "material": 0,
          "mode": 4
        }
      ]
    },
    {
      "name": "OUT_scene_/mat/aiStandardSurface2SG_0",
      "primitives": [
        {
          "attributes": {
            "NORMAL": 9,
            "POSITION": 8,
            "TEXCOORD_0": 10
          },
          "indices": 11,
          "material": 1,
          "mode": 4
        }
      ]
    },
    {
      "name": "OUT_scene_/mat/aiStandardSurface1SG_0",
      "primitives": [
        {
          "attributes": {
            "NORMAL": 13,
            "POSITION": 12,
            "TEXCOORD_0": 14
          },
          "indices": 15,
          "material": 2,
          "mode": 4
        }
      ]
    },
    {
      "name": "OUT_scene_/mat/aiStandardSurface4SG_0",
      "primitives": [
        {
          "attributes": {
            "NORMAL": 17,
            "POSITION": 16,
            "TEXCOORD_0": 18
          },
          "indices": 19,
          "material": 3,
          "mode": 4
        }
      ]
    },
    {
      "name": "OUT_scene_/mat/aiStandardSurface3SG_0",
      "primitives": [
        {
          "attributes": {
            "NORMAL": 21,
            "POSITION": 20,
            "TEXCOORD_0": 22
          },
          "indices": 23,
          "material": 4,
          "mode": 4
        }
      ]
    }
  ],
  "nodes": [
    {
      "children": [
        1
      ],
      "matrix": [
        1.0,
        0.0,
        0.0,
        0.0,
        0.0,
        2.220446049250313e-16,
        -1.0,
        0.0,
        0.0,
        1.0,
        2.220446049250313e-16,
        0.0,
        0.0,
        0.0,
        0.0,
        1.0
      ],
      "name": "Sketchfab_model"
    },
    {
      "children": [
        2
      ],
      "matrix": [
        0.009999999776482582,
        0.0,
        0.0,
        0.0,
        0.0,
        0.0,
        0.009999999776482582,
        0.0,
        0.0,
        -0.009999999776482582,
        0.0,
        0.0,
        0.0,
        0.0,
        0.0,
        1.0
      ],
      "name": "27737e0154a24a5889dc1d9af715eed0.fbx"
    },
    {
      "children": [
        3
      ],
      "name": "RootNode"
    },
    {
      "children": [
        4,
        5,
        6,
        7,
        8,
        9
      ],
      "name": "OUT_scene"
    },
    {
      "mesh": 0,
      "name": "OUT_scene_default_material_0"
    },
    {
      "mesh": 1,
      "name": "OUT_scene_default_material_0"
    },
    {
      "mesh": 2,
      "name": "OUT_scene_/mat/aiStandardSurface2SG_0"
    },
    {
      "mesh": 3,
      "name": "OUT_scene_/mat/aiStandardSurface1SG_0"
    },
    {
      "mesh": 4,
      "name": "OUT_scene_/mat/aiStandardSurface4SG_0"
    },
    {
      "mesh": 5,
      "name": "OUT_scene_/mat/aiStandardSurface3SG_0"
    }
  ],
  "samplers": [
    {
      "magFilter": 9729,
      "minFilter": 9987,
      "wrapS": 10497,
      "wrapT": 10497
    }
  ],
  "scene": 0,
  "scenes": [
    {
      "name": "Sketchfab_Scene",
      "nodes": [
        0
      ]
    }
  ],
  "textures": [
    {
      "sampler": 0,
      "source": 0
    }
  ]
}
